<?xml version="1.0" encoding="UTF-8" standalone="no"?>
<!DOCTYPE svg PUBLIC "-//W3C//DTD SVG 1.1//EN" "http://www.w3.org/Graphics/SVG/1.1/DTD/svg11.dtd">
<!-- Generated by Microsoft Visio, SVG Export dcube-observer-blocks.svg Page-1 -->
<svg xmlns="http://www.w3.org/2000/svg" xmlns:xlink="http://www.w3.org/1999/xlink" xmlns:ev="http://www.w3.org/2001/xml-events"
		xmlns:v="http://schemas.microsoft.com/visio/2003/SVGExtensions/" width="7.59773in" height="4.88772in"
		viewBox="0 0 547.036 351.916" xml:space="preserve" color-interpolation-filters="sRGB" class="st14">
	<v:documentProperties v:langID="1033" v:metric="true" v:viewMarkup="false">
		<v:userDefs>
			<v:ud v:nameU="msvSubprocessMaster" v:prompt="" v:val="VT4(Rectangle)"/>
			<v:ud v:nameU="msvNoAutoConnect" v:val="VT0(1):26"/>
		</v:userDefs>
	</v:documentProperties>

	<style type="text/css">
	<![CDATA[
		.st1 {fill:#ffffff;stroke:#000000;stroke-linecap:round;stroke-linejoin:round;stroke-width:0.75}
		.st2 {fill:#d8d8d8;stroke:#000000;stroke-linecap:round;stroke-linejoin:round;stroke-width:0.24}
		.st3 {fill:#000000;font-family:Calibri;font-size:1.99999em}
		.st4 {font-size:1em}
		.st5 {fill:#000000;font-family:Calibri;font-size:1.91666em}
		.st6 {fill:#ffffff;stroke:#000000;stroke-linecap:round;stroke-linejoin:round;stroke-width:0.24}
		.st7 {fill:#000000;font-family:Calibri;font-size:1.5em}
		.st8 {fill:#000000;font-family:Calibri;font-size:1.16666em}
		.st9 {fill:#7f7f7f;stroke:#000000;stroke-linecap:round;stroke-linejoin:round;stroke-width:0.75}
		.st10 {fill:#000000;font-family:Calibri;font-size:1.99999em;font-weight:bold}
		.st11 {fill:#f2f2f2;stroke:#000000;stroke-linecap:round;stroke-linejoin:round;stroke-width:0.75}
		.st12 {fill:none;stroke:#000000;stroke-dasharray:2.25,4.5;stroke-linecap:round;stroke-linejoin:round;stroke-width:2.25}
		.st13 {fill:#000000;font-family:Calibri;font-size:1.5em;font-weight:bold}
		.st14 {fill:none;fill-rule:evenodd;font-size:12px;overflow:visible;stroke-linecap:square;stroke-miterlimit:3}
	]]>
	</style>

	<g v:mID="0" v:index="1" v:groupContext="foregroundPage">
		<title>Page-1</title>
		<v:pageProperties v:drawingScale="0.0393701" v:pageScale="0.0393701" v:drawingUnits="24" v:shadowOffsetX="8.50394"
				v:shadowOffsetY="-8.50394"/>
		<v:layer v:name="Connector" v:index="0"/>
		<v:layer v:name="hidden" v:index="1" v:visibility="hidden" v:print="false" v:snap="false" v:glue="false"/>
		<g id="shape3-1" v:mID="3" v:groupContext="shape" transform="translate(18.375,-83.6869)">
			<title>Sheet.3</title>
			<rect x="0" y="129.461" width="510.286" height="222.455" class="st1"/>
		</g>
		<g id="shape4-3" v:mID="4" v:groupContext="shape" transform="translate(33.6223,-89.2523)">
			<title>Rectangle</title>
			<desc>DCDC/GPIO Isolators</desc>
			<v:userDefs>
				<v:ud v:nameU="visVersion" v:val="VT0(15):26"/>
			</v:userDefs>
			<v:textBlock v:margins="rect(4,4,4,4)" v:tabSpace="42.5197"/>
			<v:textRect cx="71.8591" cy="325.361" width="143.72" height="53.1099"/>
			<rect x="0" y="298.806" width="143.718" height="53.1099" class="st2"/>
			<text x="14.92" y="318.16" class="st3" v:langID="3079"><v:paragraph v:horizAlign="1"/><v:tabList/>DCDC/GPIO<v:newlineChar/><tspan
						x="30.09" dy="1.2em" class="st4">Isolators</tspan></text>		</g>
		<g id="shape5-7" v:mID="5" v:groupContext="shape" transform="translate(26.1337,-180.065)">
			<title>Rectangle.2</title>
			<desc>Raspberry Pi 3 Model B</desc>
			<v:userDefs>
				<v:ud v:nameU="visVersion" v:val="VT0(15):26"/>
			</v:userDefs>
			<v:textBlock v:margins="rect(4,4,4,4)" v:tabSpace="42.5197" v:verticalAlign="0"/>
			<v:textRect cx="248.28" cy="291.712" width="496.56" height="120.408"/>
			<rect x="0" y="231.508" width="496.559" height="120.408" class="st2"/>
			<text x="139.64" y="252.76" class="st5" v:langID="3079"><v:paragraph v:spLine="-1" v:horizAlign="1"/><v:tabList/>Raspberry Pi <tspan
						class="st4" v:langID="2057">3</tspan> Model B</text>		</g>
		<g id="shape6-11" v:mID="6" v:groupContext="shape" transform="translate(377.651,-90.7735)">
			<title>Rectangle.7</title>
			<desc>TI LMP92064</desc>
			<v:userDefs>
				<v:ud v:nameU="visVersion" v:val="VT0(15):26"/>
			</v:userDefs>
			<v:textBlock v:margins="rect(4,4,4,4)" v:tabSpace="42.5197"/>
			<v:textRect cx="69.4901" cy="333.403" width="138.99" height="37.0263"/>
			<rect x="0" y="314.89" width="138.98" height="37.0263" class="st2"/>
			<text x="5.99" y="340.6" class="st3" v:langID="3079"><v:paragraph v:horizAlign="1"/><v:tabList/>TI LMP92064</text>		</g>
		<g id="shape8-14" v:mID="8" v:groupContext="shape" transform="translate(457.397,152.445) rotate(90)">
			<title>Simple Arrow.18</title>
			<desc>GPIOs</desc>
			<v:userDefs>
				<v:ud v:nameU="visVersion" v:val="VT0(15):26"/>
				<v:ud v:nameU="ArrowType" v:prompt="" v:val="VT0(3):26"/>
			</v:userDefs>
			<v:textBlock v:margins="rect(4,4,4,4)" v:tabSpace="42.5197"/>
			<v:textRect cx="27.2656" cy="351.916" width="54.54" height="0" transform="rotate(180)"/>
			<path d="M0 351.92 L11.34 327.44 L11.34 339.68 L43.19 339.68 L43.19 327.44 L54.53 351.92 L43.19 376.39 L43.19 364.15
						 L11.34 364.15 L11.34 376.39 L0 351.92 Z" class="st6"/>
			<text x="-49.34" y="-346.52" transform="rotate(180)" class="st7" v:langID="3079"><v:paragraph v:horizAlign="1"/><v:tabList/>GPIOs</text>		</g>
		<g id="shape11-17" v:mID="11" v:groupContext="shape" v:layerMember="1"
				transform="translate(744.282,231.857) rotate(90.0783)" display="none">
			<title>Simple Arrow.26</title>
			<desc>Voltage &#38; Current</desc>
			<v:userDefs>
				<v:ud v:nameU="visVersion" v:val="VT0(15):26"/>
				<v:ud v:nameU="ArrowType" v:prompt="" v:val="VT0(2):26"/>
			</v:userDefs>
			<v:textBlock v:margins="rect(4,4,4,4)" v:tabSpace="42.5197"/>
			<v:textRect cx="36.3583" cy="351.916" width="72.72" height="0" transform="rotate(180)"/>
			<path d="M0 351.92 L11.91 315.92 L11.91 333.92 L72.72 333.92 L72.72 351.92 L72.72 369.92 L11.91 369.92 L11.91 387.92
						 L0 351.92 Z" class="st6"/>
			<text x="-64.46" y="-356.12" transform="rotate(-180)" class="st8" v:langID="3079"><v:paragraph v:horizAlign="1"/><v:tabList/>Voltage &#38; <tspan
						x="-58.15" dy="1.2em" class="st4">Current</tspan></text>		</g>
		<g id="shape12-21" v:mID="12" v:groupContext="shape" transform="translate(799.057,174.498) rotate(90)">
			<title>Simple Double Arrow</title>
			<desc>SPI</desc>
			<v:userDefs>
				<v:ud v:nameU="visVersion" v:val="VT0(15):26"/>
				<v:ud v:nameU="ArrowType" v:prompt="" v:val="VT0(3):26"/>
			</v:userDefs>
			<v:textBlock v:margins="rect(4,4,4,4)" v:tabSpace="42.5197"/>
			<v:textRect cx="23.0315" cy="351.916" width="46.07" height="0" transform="rotate(180)"/>
			<path d="M0 351.92 L11.34 326.4 L11.34 339.16 L34.72 339.16 L34.72 326.4 L46.06 351.92 L34.72 377.43 L34.72 364.67 L11.34
						 364.67 L11.34 377.43 L0 351.92 Z" class="st6"/>
			<text x="-34.08" y="-346.52" transform="rotate(180)" class="st7" v:langID="3079"><v:paragraph v:horizAlign="1"/><v:tabList/>SPI</text>		</g>
		<g id="shape14-24" v:mID="14" v:groupContext="shape" transform="translate(18.375,-306.142)">
			<title>Sheet.14</title>
			<desc>Observer Module</desc>
			<v:textBlock v:margins="rect(4,4,4,4)" v:tabSpace="42.5197"/>
			<v:textRect cx="255.143" cy="338.542" width="510.29" height="26.7487"/>
			<rect x="0" y="325.167" width="510.286" height="26.7487" class="st9"/>
			<text x="167.99" y="345.74" class="st10" v:langID="3079"><v:paragraph v:horizAlign="1"/><v:tabList/>Observer Module</text>		</g>
		<g id="shape15-27" v:mID="15" v:groupContext="shape" transform="translate(32.3075,-200.43)">
			<title>Sheet.15</title>
			<desc>GPIO Tracing Process</desc>
			<v:textBlock v:margins="rect(4,4,4,4)" v:tabSpace="42.5197"/>
			<v:textRect cx="72.8083" cy="332.831" width="145.62" height="38.1702"/>
			<rect x="0" y="313.746" width="145.617" height="38.1702" class="st11"/>
			<text x="25.55" y="327.43" class="st7" v:langID="3079"><v:paragraph v:horizAlign="1"/><v:tabList/>GPIO Tracing <tspan
						x="44.95" dy="1.2em" class="st4">Process</tspan></text>		</g>
		<g id="shape16-31" v:mID="16" v:groupContext="shape" transform="translate(196.719,-201.461)">
			<title>Sheet.16</title>
			<desc>Latency Profiling Process</desc>
			<v:textBlock v:margins="rect(4,4,4,4)" v:tabSpace="42.5197"/>
			<v:textRect cx="80.9316" cy="333.347" width="161.87" height="37.1386"/>
			<rect x="0" y="314.777" width="161.863" height="37.1386" class="st11"/>
			<text x="20.26" y="327.95" class="st7" v:langID="3079"><v:paragraph v:horizAlign="1"/><v:tabList/>Latency Profiling <tspan
						x="53.07" dy="1.2em" class="st4">Process</tspan></text>		</g>
		<g id="shape17-35" v:mID="17" v:groupContext="shape" transform="translate(377.651,-182.899)">
			<title>Sheet.17</title>
			<desc>Power Profiling Process</desc>
			<v:textBlock v:margins="rect(4,4,4,4)" v:tabSpace="42.5197"/>
			<v:textRect cx="69.4901" cy="333.347" width="138.99" height="37.1386"/>
			<rect x="0" y="314.777" width="138.98" height="37.1386" class="st11"/>
			<text x="13.57" y="327.95" class="st7" v:langID="3079"><v:paragraph v:horizAlign="1"/><v:tabList/>Power Profiling <tspan
						x="41.63" dy="1.2em" class="st4">Process</tspan></text>		</g>
		<g id="shape18-39" v:mID="18" v:groupContext="shape" transform="translate(28.2963,-75.1797)">
			<title>Sheet.18</title>
			<desc>GPIO Tracing Unit</desc>
			<v:textBlock v:margins="rect(4,4,4,4)" v:tabSpace="42.5197" v:verticalAlign="0"/>
			<v:textRect cx="77.2905" cy="256.912" width="154.59" height="190.007"/>
			<path d="M0 351.92 L154.58 351.92 L154.58 161.91 L0 161.91 L0 351.92 Z" class="st12"/>
			<text x="11" y="182.11" class="st13" v:langID="3079"><v:paragraph v:horizAlign="1"/><v:tabList/>GPIO Tracing Unit</text>		</g>
		<g id="shape19-42" v:mID="19" v:groupContext="shape" transform="translate(192.353,-75.1797)">
			<title>Sheet.19</title>
			<desc>Latency Profiling Unit</desc>
			<v:textBlock v:margins="rect(4,4,4,4)" v:tabSpace="42.5197" v:verticalAlign="0"/>
			<v:textRect cx="85.2408" cy="256.912" width="170.49" height="190.007"/>
			<path d="M0 351.92 L170.48 351.92 L170.48 161.91 L0 161.91 L0 351.92 Z" class="st12"/>
			<text x="4.97" y="179.41" class="st13" v:langID="3079"><v:paragraph v:spLine="-1" v:horizAlign="1"/><v:tabList/>Latency Profiling Unit</text>		</g>
		<g id="shape20-45" v:mID="20" v:groupContext="shape" transform="translate(372.329,-75.1797)">
			<title>Sheet.20</title>
			<desc>Power Profiling Unit</desc>
			<v:textBlock v:margins="rect(4,4,4,4)" v:tabSpace="42.5197" v:verticalAlign="0"/>
			<v:textRect cx="74.128" cy="256.912" width="148.26" height="190.007"/>
			<path d="M0 351.92 L148.26 351.92 L148.26 161.91 L0 161.91 L0 351.92 Z" class="st12"/>
			<text x="50.06" y="179.41" class="st13" v:langID="3079"><v:paragraph v:spLine="-1" v:horizAlign="1"/><v:tabList/>Power <v:newlineChar/><tspan
						x="24.65" dy="1em" class="st4">Profiling Unit</tspan></text>		</g>
		<g id="shape21-49" v:mID="21" v:groupContext="shape" transform="translate(580.649,153.751) rotate(90)">
			<title>Simple Arrow.31</title>
			<desc>UART</desc>
			<v:userDefs>
				<v:ud v:nameU="visVersion" v:val="VT0(15):26"/>
				<v:ud v:nameU="ArrowType" v:prompt="" v:val="VT0(2):26"/>
			</v:userDefs>
			<v:textBlock v:margins="rect(4,4,4,4)" v:tabSpace="42.5197"/>
			<v:textRect cx="25.4122" cy="351.916" width="50.83" height="0" transform="rotate(180)"/>
			<path d="M0 351.92 L11.91 327.49 L11.91 339.7 L50.82 339.7 L50.82 351.92 L50.82 364.13 L11.91 364.13 L11.91 376.34 L0
						 351.92 Z" class="st6"/>
			<text x="-45.67" y="-346.52" transform="rotate(180)" class="st7" v:langID="3079"><v:paragraph v:horizAlign="1"/><v:tabList/>UART</text>		</g>
		<g id="shape22-52" v:mID="22" v:groupContext="shape" transform="translate(635.381,153.751) rotate(90)">
			<title>Simple Arrow.35</title>
			<desc>PPS</desc>
			<v:userDefs>
				<v:ud v:nameU="visVersion" v:val="VT0(15):26"/>
				<v:ud v:nameU="ArrowType" v:prompt="" v:val="VT0(2):26"/>
			</v:userDefs>
			<v:textBlock v:margins="rect(4,4,4,4)" v:tabSpace="42.5197"/>
			<v:textRect cx="25.4122" cy="351.916" width="50.83" height="0" transform="rotate(180)"/>
			<path d="M0 351.92 L11.91 330.43 L11.91 341.17 L50.82 341.17 L50.82 351.92 L50.82 362.66 L11.91 362.66 L11.91 373.4 L0
						 351.92 Z" class="st6"/>
			<text x="-38.85" y="-346.52" transform="rotate(180)" class="st7" v:langID="3079"><v:paragraph v:horizAlign="1"/><v:tabList/>PPS</text>		</g>
		<g id="shape10-55" v:mID="10" v:groupContext="shape" transform="translate(603.376,262.763) rotate(90)">
			<title>Simple Arrow.25</title>
			<desc>GPS</desc>
			<v:userDefs>
				<v:ud v:nameU="visVersion" v:val="VT0(15):26"/>
				<v:ud v:nameU="ArrowType" v:prompt="" v:val="VT0(2):26"/>
			</v:userDefs>
			<v:textBlock v:margins="rect(4,4,4,4)" v:tabSpace="42.5197"/>
			<v:textRect cx="35.1669" cy="351.916" width="70.34" height="0" transform="rotate(180)"/>
			<path d="M0 351.92 L11.91 325.43 L11.91 338.68 L70.33 338.68 L70.33 351.92 L70.33 365.16 L11.91 365.16 L11.91 378.4 L0
						 351.92 Z" class="st6"/>
			<text x="-49.63" y="-346.52" transform="rotate(180)" class="st7" v:langID="2057"><v:paragraph v:horizAlign="1"/><v:tabList/>GPS</text>		</g>
		<g id="shape52-58" v:mID="52" v:groupContext="shape" transform="translate(-249.869,333.426) rotate(-90)">
			<title>Simple Arrow.52</title>
			<desc>Reset</desc>
			<v:userDefs>
				<v:ud v:nameU="visVersion" v:val="VT0(15):26"/>
				<v:ud v:nameU="ArrowType" v:prompt="" v:val="VT0(2):26"/>
			</v:userDefs>
			<v:textBlock v:margins="rect(4,4,4,4)" v:tabSpace="42.5197"/>
			<v:textRect cx="34.0016" cy="351.916" width="68.01" height="0" transform="rotate(360)"/>
			<path d="M0 351.92 L11.91 329.24 L11.91 340.58 L68 340.58 L68 351.92 L68 363.25 L11.91 363.25 L11.91 374.59 L0 351.92
						 Z" class="st6"/>
			<text x="13.62" y="357.32" class="st7" v:langID="3079"><v:paragraph v:horizAlign="1"/><v:tabList/>Reset</text>		</g>
		<g id="shape53-61" v:mID="53" v:groupContext="shape" transform="translate(507.771,263.208) rotate(89.9586)">
			<title>Simple Arrow.53</title>
			<desc>8 GPIOs</desc>
			<v:userDefs>
				<v:ud v:nameU="visVersion" v:val="VT0(15):26"/>
				<v:ud v:nameU="ArrowType" v:prompt="" v:val="VT0(3):26"/>
			</v:userDefs>
			<v:textBlock v:margins="rect(4,4,4,4)" v:tabSpace="42.5197"/>
			<v:textRect cx="34.7668" cy="351.916" width="69.54" height="0" transform="rotate(180)"/>
			<path d="M0 351.92 L11.34 329.12 L11.34 340.52 L58.2 340.52 L58.2 329.12 L69.53 351.92 L58.2 374.72 L58.2 363.32 L11.34
						 363.32 L11.34 374.72 L0 351.92 Z" class="st6"/>
			<text x="-63.44" y="-346.52" transform="rotate(180)" class="st7" v:langID="3079"><v:paragraph v:horizAlign="1"/><v:tabList/>8 GPIOs</text>		</g>
		<g id="shape54-64" v:mID="54" v:groupContext="shape" transform="translate(-303.295,333.426) rotate(-90)">
			<title>Simple Arrow.37</title>
			<desc>Power</desc>
			<v:userDefs>
				<v:ud v:nameU="visVersion" v:val="VT0(15):26"/>
				<v:ud v:nameU="ArrowType" v:prompt="" v:val="VT0(2):26"/>
			</v:userDefs>
			<v:textBlock v:margins="rect(4,4,4,4)" v:tabSpace="42.5197"/>
			<v:textRect cx="34.0016" cy="351.916" width="68.01" height="0" transform="rotate(360)"/>
			<path d="M0 351.92 L11.91 329.24 L11.91 340.58 L68 340.58 L68 351.92 L68 363.25 L11.91 363.25 L11.91 374.59 L0 351.92
						 Z" class="st6"/>
			<text x="10.56" y="357.32" class="st7" v:langID="3079"><v:paragraph v:horizAlign="1"/><v:tabList/>Power</text>		</g>
		<g id="group62-67" transform="translate(415.252,-18.12)" v:mID="62" v:groupContext="group">
			<title>Sheet.62</title>
			<g id="shape50-68" v:mID="50" v:groupContext="shape" transform="translate(351.916,281.582) rotate(90)">
				<title>Simple Arrow.50</title>
				<desc>Voltage</desc>
				<v:userDefs>
					<v:ud v:nameU="visVersion" v:val="VT0(15):26"/>
					<v:ud v:nameU="ArrowType" v:prompt="" v:val="VT0(2):26"/>
				</v:userDefs>
				<v:textBlock v:margins="rect(4,4,4,4)" v:tabSpace="42.5197"/>
				<v:textRect cx="35.1669" cy="351.916" width="70.34" height="0" transform="rotate(180)"/>
				<path d="M0 351.92 L11.91 325.43 L11.91 338.68 L70.33 338.68 L70.33 351.92 L70.33 365.16 L11.91 365.16 L11.91 378.4
							 L0 351.92 Z" class="st6"/>
				<text x="-63.12" y="-346.52" transform="rotate(180)" class="st7" v:langID="2057"><v:paragraph v:horizAlign="1"/><v:tabList/>Voltage</text>			</g>
			<g id="shape51-71" v:mID="51" v:groupContext="shape" transform="translate(415.696,281.582) rotate(90)">
				<title>Simple Arrow.51</title>
				<desc>Current</desc>
				<v:userDefs>
					<v:ud v:nameU="visVersion" v:val="VT0(15):26"/>
					<v:ud v:nameU="ArrowType" v:prompt="" v:val="VT0(2):26"/>
				</v:userDefs>
				<v:textBlock v:margins="rect(4,4,4,4)" v:tabSpace="42.5197"/>
				<v:textRect cx="35.1669" cy="351.916" width="70.34" height="0" transform="rotate(180)"/>
				<path d="M0 351.92 L11.91 325.43 L11.91 338.68 L70.33 338.68 L70.33 351.92 L70.33 365.16 L11.91 365.16 L11.91 378.4
							 L0 351.92 Z" class="st6"/>
				<text x="-63.19" y="-346.52" transform="rotate(180)" class="st7" v:langID="2057"><v:paragraph v:horizAlign="1"/><v:tabList/>Current</text>			</g>
		</g>
		<g id="shape64-74" v:mID="64" v:groupContext="shape" transform="translate(683.57,152.38) rotate(90)">
			<title>Simple Arrow.64</title>
			<desc>NTP</desc>
			<v:userDefs>
				<v:ud v:nameU="visVersion" v:val="VT0(15):26"/>
				<v:ud v:nameU="ArrowType" v:prompt="" v:val="VT0(2):26"/>
			</v:userDefs>
			<v:textBlock v:margins="rect(4,4,4,4)" v:tabSpace="42.5197"/>
			<v:textRect cx="89.6114" cy="351.916" width="179.23" height="0" transform="rotate(180)"/>
			<path d="M0 351.92 L11.91 329.06 L11.91 340.49 L179.22 340.49 L179.22 351.92 L179.22 363.35 L11.91 363.35 L11.91 374.78
						 L0 351.92 Z" class="st6"/>
			<text x="-104.46" y="-346.52" transform="rotate(180)" class="st7" v:langID="2057"><v:paragraph v:horizAlign="1"/><v:tabList/>NTP</text>		</g>
		<g id="shape9-77" v:mID="9" v:groupContext="shape" transform="translate(196.719,-92.4627)">
			<title>Rectangle.3</title>
			<desc>GPS Module</desc>
			<v:userDefs>
				<v:ud v:nameU="visVersion" v:val="VT0(15):26"/>
			</v:userDefs>
			<v:textBlock v:margins="rect(4,4,4,4)" v:tabSpace="42.5197"/>
			<v:textRect cx="54.0025" cy="326.966" width="108.01" height="49.8995"/>
			<rect x="0" y="302.016" width="108.005" height="49.8995" class="st2"/>
			<text x="34.72" y="319.77" class="st3" v:langID="2057"><v:paragraph v:horizAlign="1"/><v:tabList/>GPS <tspan x="16.08"
						dy="1.2em" class="st4">Module</tspan></text>		</g>
	</g>
</svg>
