<?xml version="1.0" encoding="UTF-8" standalone="no"?>
<!DOCTYPE svg PUBLIC "-//W3C//DTD SVG 1.1//EN" "http://www.w3.org/Graphics/SVG/1.1/DTD/svg11.dtd">
<!-- Generated by Microsoft Visio, SVG Export serverside-arch.svg Page-1 -->
<svg xmlns="http://www.w3.org/2000/svg" xmlns:xlink="http://www.w3.org/1999/xlink" xmlns:ev="http://www.w3.org/2001/xml-events"
		xmlns:v="http://schemas.microsoft.com/visio/2003/SVGExtensions/" width="8.57931in" height="4.29826in"
		viewBox="0 0 617.711 309.474" xml:space="preserve" color-interpolation-filters="sRGB" class="st11">
	<v:documentProperties v:langID="1033" v:metric="true" v:viewMarkup="false"/>

	<style type="text/css">
	<![CDATA[
		.st1 {fill:#f2f2f2;stroke:#000000;stroke-linecap:round;stroke-linejoin:round;stroke-width:0.24}
		.st2 {fill:#7f7f7f;stroke:#000000;stroke-linecap:round;stroke-linejoin:round;stroke-width:0.24}
		.st3 {fill:#000000;font-family:Calibri;font-size:1.99999em;font-weight:bold}
		.st4 {fill:#ffffff;stroke:#000000;stroke-linecap:round;stroke-linejoin:round;stroke-width:0.24}
		.st5 {fill:#000000;font-family:Calibri;font-size:1.5em;font-weight:bold}
		.st6 {font-size:1em}
		.st7 {font-size:1em;font-weight:normal}
		.st8 {fill:none;stroke:#000000;stroke-dasharray:2.25,4.5;stroke-linecap:round;stroke-linejoin:round;stroke-width:2.25}
		.st9 {fill:#000000;font-family:Calibri;font-size:1.16666em;font-weight:bold}
		.st10 {fill:#000000;font-family:Calibri;font-size:1.5em}
		.st11 {fill:none;fill-rule:evenodd;font-size:12px;overflow:visible;stroke-linecap:square;stroke-miterlimit:3}
	]]>
	</style>

	<g v:mID="0" v:index="1" v:groupContext="foregroundPage">
		<title>Page-1</title>
		<v:pageProperties v:drawingScale="0.0393701" v:pageScale="0.0393701" v:drawingUnits="24" v:shadowOffsetX="8.50394"
				v:shadowOffsetY="-8.50394"/>
		<g id="shape116-1" v:mID="116" v:groupContext="shape" transform="translate(0.375,-36.7112)">
			<title>Rectangle.23</title>
			<v:userDefs>
				<v:ud v:nameU="visVersion" v:val="VT0(15):26"/>
			</v:userDefs>
			<rect x="0" y="64.8419" width="616.961" height="244.633" class="st1"/>
		</g>
		<g id="shape117-3" v:mID="117" v:groupContext="shape" transform="translate(0.375,-281.7)">
			<title>Rectangle.28</title>
			<desc>Server Side Components</desc>
			<v:userDefs>
				<v:ud v:nameU="visVersion" v:val="VT0(15):26"/>
			</v:userDefs>
			<v:textBlock v:margins="rect(4,4,4,4)" v:tabSpace="42.5197"/>
			<v:textRect cx="308.48" cy="296.1" width="616.97" height="26.7487"/>
			<rect x="0" y="282.726" width="616.961" height="26.7487" class="st2"/>
			<text x="186.67" y="303.3" class="st3" v:langID="2057"><v:paragraph v:horizAlign="1"/><v:tabList/>Server Side Components</text>		</g>
		<g id="shape118-6" v:mID="118" v:groupContext="shape" transform="translate(17.8081,-179.297)">
			<title>Rectangle.25</title>
			<desc>Time Series Database InfluxDB</desc>
			<v:userDefs>
				<v:ud v:nameU="visVersion" v:val="VT0(15):26"/>
			</v:userDefs>
			<v:textBlock v:margins="rect(4,4,4,4)" v:tabSpace="42.5197"/>
			<v:textRect cx="97.3701" cy="277.51" width="194.75" height="63.9288"/>
			<rect x="0" y="245.546" width="194.74" height="63.9288" class="st4"/>
			<text x="17.39" y="272.11" class="st5" v:langID="3079"><v:paragraph v:horizAlign="1"/><v:tabList/>Time Series<tspan
						class="st6" v:langID="2057"> </tspan>Database <v:newlineChar/><tspan x="66.5" dy="1.2em" class="st7">InfluxDB</tspan></text>		</g>
		<g id="shape119-11" v:mID="119" v:groupContext="shape" transform="translate(261.588,-51.7837)">
			<title>Rectangle.183</title>
			<desc>Frontend Web Interface</desc>
			<v:userDefs>
				<v:ud v:nameU="visVersion" v:val="VT0(15):26"/>
			</v:userDefs>
			<v:textBlock v:margins="rect(4,4,4,4)" v:tabSpace="42.5197"/>
			<v:textRect cx="110.906" cy="287.247" width="221.82" height="44.4551"/>
			<rect x="0" y="265.019" width="221.811" height="44.4551" class="st4"/>
			<text x="76.6" y="281.85" class="st5" v:langID="2057"><v:paragraph v:horizAlign="1"/><v:tabList/>Frontend<v:newlineChar/><tspan
						x="58.69" dy="1.2em" class="st7" v:langID="3079">Web Interface</tspan></text>		</g>
		<g id="shape120-15" v:mID="120" v:groupContext="shape" transform="translate(8.81215,-44.4093)">
			<title>Sheet.120</title>
			<desc>Measurement Stack</desc>
			<v:textBlock v:margins="rect(4,4,4,4)" v:tabSpace="42.5197" v:verticalAlign="0"/>
			<v:textRect cx="105.553" cy="194.193" width="211.11" height="230.563"/>
			<path d="M0 309.47 L211.11 309.47 L211.11 78.91 L0 78.91 L0 309.47 Z" class="st8"/>
			<text x="30.82" y="99.11" class="st5" v:langID="2057"><v:paragraph v:horizAlign="1"/><v:tabList/>Measurement Stack</text>		</g>
		<g id="shape121-18" v:mID="121" v:groupContext="shape" transform="translate(242.454,-44.4093)">
			<title>Sheet.121</title>
			<desc>Custom Front- and Backend</desc>
			<v:textBlock v:margins="rect(4,4,4,4)" v:tabSpace="42.5197" v:verticalAlign="0"/>
			<v:textRect cx="122.598" cy="194.193" width="245.2" height="230.563"/>
			<path d="M0 309.47 L245.2 309.47 L245.2 78.91 L0 78.91 L0 309.47 Z" class="st8"/>
			<text x="19.29" y="99.11" class="st5" v:langID="2057"><v:paragraph v:horizAlign="1"/><v:tabList/>Custom Front- and Backend</text>		</g>
		<g id="shape122-21" v:mID="122" v:groupContext="shape" transform="translate(256.627,-133.942)">
			<title>Rectangle.100</title>
			<desc>Backend</desc>
			<v:userDefs>
				<v:ud v:nameU="visVersion" v:val="VT0(15):26"/>
			</v:userDefs>
			<v:textBlock v:margins="rect(4,4,4,4)" v:tabSpace="42.5197" v:verticalAlign="0"/>
			<v:textRect cx="45.7087" cy="254.833" width="91.42" height="109.283"/>
			<rect x="0" y="200.191" width="91.4173" height="109.283" class="st4"/>
			<text x="13.94" y="220.39" class="st5" v:langID="2057"><v:paragraph v:horizAlign="1"/><v:tabList/>Backend</text>		</g>
		<g id="shape123-24" v:mID="123" v:groupContext="shape" transform="translate(260.776,-139.611)">
			<title>Rectangle.71</title>
			<desc>Scheduler</desc>
			<v:userDefs>
				<v:ud v:nameU="visVersion" v:val="VT0(15):26"/>
			</v:userDefs>
			<v:textBlock v:margins="rect(4,4,4,4)" v:tabSpace="42.5197"/>
			<v:textRect cx="41.1045" cy="290.316" width="82.21" height="38.3172"/>
			<rect x="0" y="271.157" width="82.2091" height="38.3172" class="st4"/>
			<text x="12.34" y="294.52" class="st9" v:langID="3079"><v:paragraph v:horizAlign="1"/><v:tabList/>Scheduler</text>		</g>
		<g id="shape124-27" v:mID="124" v:groupContext="shape" transform="translate(260.776,-179.297)">
			<title>Rectangle.73</title>
			<desc>Evaluation</desc>
			<v:userDefs>
				<v:ud v:nameU="visVersion" v:val="VT0(15):26"/>
			</v:userDefs>
			<v:textBlock v:margins="rect(4,4,4,4)" v:tabSpace="42.5197"/>
			<v:textRect cx="41.1045" cy="290.316" width="82.21" height="38.3172"/>
			<rect x="0" y="271.157" width="82.2091" height="38.3172" class="st4"/>
			<text x="10.33" y="294.52" class="st9" v:langID="2057"><v:paragraph v:horizAlign="1"/><v:tabList/>Evaluation</text>		</g>
		<g id="shape125-30" v:mID="125" v:groupContext="shape" transform="translate(261.725,416.975) rotate(180)">
			<title>Simple Arrow.101</title>
			<desc>API</desc>
			<v:userDefs>
				<v:ud v:nameU="visVersion" v:val="VT0(15):26"/>
				<v:ud v:nameU="ArrowType" v:prompt="" v:val="VT0(3):26"/>
			</v:userDefs>
			<v:textBlock v:margins="rect(4,4,4,4)" v:tabSpace="42.5197"/>
			<v:textRect cx="24.5883" cy="309.474" width="49.18" height="0" transform="rotate(180)"/>
			<path d="M0 309.47 L11.34 285 L11.34 297.24 L37.84 297.24 L37.84 285 L49.18 309.47 L37.84 333.95 L37.84 321.71 L11.34
						 321.71 L11.34 333.95 L0 309.47 Z" class="st4"/>
			<text x="-36.71" y="-304.07" transform="rotate(180)" class="st10" v:langID="2057"><v:paragraph v:horizAlign="1"/><v:tabList/>API</text>		</g>
		<g id="shape126-33" v:mID="126" v:groupContext="shape" transform="translate(611.81,175.721) rotate(90)">
			<title>Simple Arrow.104</title>
			<desc>API</desc>
			<v:userDefs>
				<v:ud v:nameU="visVersion" v:val="VT0(15):26"/>
				<v:ud v:nameU="ArrowType" v:prompt="" v:val="VT0(3):26"/>
			</v:userDefs>
			<v:textBlock v:margins="rect(4,4,4,4)" v:tabSpace="42.5197"/>
			<v:textRect cx="18.4961" cy="309.474" width="37" height="0" transform="rotate(180)"/>
			<path d="M0 309.47 L11.34 285 L11.34 297.24 L25.65 297.24 L25.65 285 L36.99 309.47 L25.65 333.95 L25.65 321.71 L11.34
						 321.71 L11.34 333.95 L0 309.47 Z" class="st4"/>
			<text x="-30.62" y="-304.07" transform="rotate(180)" class="st10" v:langID="2057"><v:paragraph v:horizAlign="1"/><v:tabList/>API</text>		</g>
		<g id="shape127-36" v:mID="127" v:groupContext="shape" transform="translate(494.737,-44.4093)">
			<title>Sheet.127</title>
			<desc>Message Broker</desc>
			<v:textBlock v:margins="rect(4,4,4,4)" v:tabSpace="42.5197" v:verticalAlign="0"/>
			<v:textRect cx="57.6476" cy="194.193" width="115.3" height="230.563"/>
			<path d="M0 309.47 L115.3 309.47 L115.3 78.91 L0 78.91 L0 309.47 Z" class="st8"/>
			<text x="24.83" y="99.11" class="st5" v:langID="2057"><v:paragraph v:horizAlign="1"/><v:tabList/>Message <tspan
						x="32.52" dy="1.2em" class="st6">Broker</tspan></text>		</g>
		<g id="shape128-40" v:mID="128" v:groupContext="shape" transform="translate(396.233,-187.254)">
			<title>Rectangle.106</title>
			<desc>Database MariaDB</desc>
			<v:userDefs>
				<v:ud v:nameU="visVersion" v:val="VT0(15):26"/>
			</v:userDefs>
			<v:textBlock v:margins="rect(4,4,4,4)" v:tabSpace="42.5197" v:verticalAlign="0"/>
			<v:textRect cx="40.0394" cy="281.489" width="80.08" height="55.9709"/>
			<rect x="0" y="253.503" width="80.0787" height="55.9709" class="st4"/>
			<text x="4.97" y="273.7" class="st5" v:langID="2057"><v:paragraph v:horizAlign="1"/><v:tabList/>Database<v:newlineChar/><tspan
						x="8.09" dy="1.2em" class="st7">MariaDB</tspan></text>		</g>
		<g id="shape129-44" v:mID="129" v:groupContext="shape" transform="translate(395.987,404.616) rotate(180)">
			<title>Simple Arrow.107</title>
			<desc>SQL</desc>
			<v:userDefs>
				<v:ud v:nameU="visVersion" v:val="VT0(15):26"/>
				<v:ud v:nameU="ArrowType" v:prompt="" v:val="VT0(3):26"/>
			</v:userDefs>
			<v:textBlock v:margins="rect(4,4,4,4)" v:tabSpace="42.5197"/>
			<v:textRect cx="23.9712" cy="309.474" width="47.95" height="0" transform="rotate(180)"/>
			<path d="M0 309.47 L11.34 285 L11.34 297.24 L36.6 297.24 L36.6 285 L47.94 309.47 L36.6 333.95 L36.6 321.71 L11.34 321.71
						 L11.34 333.95 L0 309.47 Z" class="st4"/>
			<text x="-37.95" y="-304.07" transform="rotate(180)" class="st10" v:langID="2057"><v:paragraph v:horizAlign="1"/><v:tabList/>SQL</text>		</g>
		<g id="shape130-47" v:mID="130" v:groupContext="shape" transform="translate(509.052,460.912) rotate(180)">
			<title>Simple Arrow.103</title>
			<desc>DCM</desc>
			<v:userDefs>
				<v:ud v:nameU="visVersion" v:val="VT0(15):26"/>
				<v:ud v:nameU="ArrowType" v:prompt="" v:val="VT0(3):26"/>
			</v:userDefs>
			<v:textBlock v:margins="rect(4,4,4,4)" v:tabSpace="42.5197"/>
			<v:textRect cx="83.1894" cy="309.474" width="166.38" height="0" transform="rotate(180)"/>
			<path d="M0 309.47 L11.34 285 L11.34 297.24 L155.04 297.24 L155.04 285 L166.38 309.47 L155.04 333.95 L155.04 321.71 L11.34
						 321.71 L11.34 333.95 L0 309.47 Z" class="st4"/>
			<text x="-101.22" y="-304.07" transform="rotate(180)" class="st10" v:langID="2057"><v:paragraph v:horizAlign="1"/><v:tabList/>DCM</text>		</g>
		<g id="shape131-50" v:mID="131" v:groupContext="shape" transform="translate(509.619,-139.611)">
			<title>Rectangle.108</title>
			<desc>AMQP Broker RabbitMQ</desc>
			<v:userDefs>
				<v:ud v:nameU="visVersion" v:val="VT0(15):26"/>
			</v:userDefs>
			<v:textBlock v:margins="rect(4,4,4,4)" v:tabSpace="42.5197" v:verticalAlign="0"/>
			<v:textRect cx="45.7087" cy="270.15" width="91.42" height="78.6481"/>
			<rect x="0" y="230.826" width="91.4173" height="78.6481" class="st4"/>
			<text x="21.42" y="251.03" class="st5" v:langID="2057"><v:paragraph v:horizAlign="1"/><v:tabList/>AMQP <tspan x="20.58"
						dy="1.2em" class="st6">Broker<v:newlineChar/></tspan><tspan x="8.22" dy="1.2em" class="st7">RabbitMQ</tspan></text>		</g>
		<g id="shape132-55" v:mID="132" v:groupContext="shape" transform="translate(681.967,257.871) rotate(90)">
			<title>Simple Arrow.109</title>
			<desc>HTTP</desc>
			<v:userDefs>
				<v:ud v:nameU="visVersion" v:val="VT0(15):26"/>
				<v:ud v:nameU="ArrowType" v:prompt="" v:val="VT0(3):26"/>
			</v:userDefs>
			<v:textBlock v:margins="rect(4,4,4,4)" v:tabSpace="42.5197"/>
			<v:textRect cx="24.8641" cy="309.474" width="49.73" height="0" transform="rotate(180)"/>
			<path d="M0 309.47 L11.34 285 L11.34 297.24 L38.39 297.24 L38.39 285 L49.73 309.47 L38.39 333.95 L38.39 321.71 L11.34
						 321.71 L11.34 333.95 L0 309.47 Z" class="st4"/>
			<text x="-43.89" y="-304.07" transform="rotate(180)" class="st10" v:langID="2057"><v:paragraph v:horizAlign="1"/><v:tabList/>HTTP</text>		</g>
		<g id="shape133-58" v:mID="133" v:groupContext="shape" transform="translate(97.778,-51.7837)">
			<title>Rectangle.24</title>
			<desc>User Interface Grafana</desc>
			<v:userDefs>
				<v:ud v:nameU="visVersion" v:val="VT0(15):26"/>
			</v:userDefs>
			<v:textBlock v:margins="rect(4,4,4,4)" v:tabSpace="42.5197"/>
			<v:textRect cx="57.6476" cy="287.247" width="115.3" height="44.4551"/>
			<rect x="0" y="265.019" width="115.295" height="44.4551" class="st4"/>
			<text x="4.75" y="281.85" class="st5" v:langID="3079"><v:paragraph v:horizAlign="1"/><v:tabList/>User Interface<v:newlineChar/><tspan
						x="28.42" dy="1.2em" class="st7">Grafana</tspan></text>		</g>
		<g id="shape134-62" v:mID="134" v:groupContext="shape" transform="translate(464.9,130.178) rotate(90)">
			<title>Simple Arrow.18</title>
			<desc>API</desc>
			<v:userDefs>
				<v:ud v:nameU="visVersion" v:val="VT0(15):26"/>
				<v:ud v:nameU="ArrowType" v:prompt="" v:val="VT0(3):26"/>
			</v:userDefs>
			<v:textBlock v:margins="rect(4,4,4,4)" v:tabSpace="42.5197"/>
			<v:textRect cx="41.5289" cy="309.474" width="83.06" height="0" transform="rotate(180)"/>
			<path d="M0 309.47 L11.34 285 L11.34 297.24 L71.72 297.24 L71.72 285 L83.06 309.47 L71.72 333.95 L71.72 321.71 L11.34
						 321.71 L11.34 333.95 L0 309.47 Z" class="st4"/>
			<text x="-53.65" y="-304.07" transform="rotate(180)" class="st10" v:langID="2057"><v:paragraph v:horizAlign="1"/><v:tabList/>API</text>		</g>
		<g id="shape135-65" v:mID="135" v:groupContext="shape" transform="translate(464.9,259.626) rotate(90)">
			<title>Simple Arrow.98</title>
			<desc>HTTP</desc>
			<v:userDefs>
				<v:ud v:nameU="visVersion" v:val="VT0(15):26"/>
				<v:ud v:nameU="ArrowType" v:prompt="" v:val="VT0(3):26"/>
			</v:userDefs>
			<v:textBlock v:margins="rect(4,4,4,4)" v:tabSpace="42.5197"/>
			<v:textRect cx="24.8641" cy="309.474" width="49.73" height="0" transform="rotate(180)"/>
			<path d="M0 309.47 L11.34 285 L11.34 297.24 L38.39 297.24 L38.39 285 L49.73 309.47 L38.39 333.95 L38.39 321.71 L11.34
						 321.71 L11.34 333.95 L0 309.47 Z" class="st4"/>
			<text x="-43.89" y="-304.07" transform="rotate(180)" class="st10" v:langID="2057"><v:paragraph v:horizAlign="1"/><v:tabList/>HTTP</text>		</g>
		<g id="shape137-68" v:mID="137" v:groupContext="shape" transform="translate(341.456,130.178) rotate(90)">
			<title>Simple Arrow.35</title>
			<desc>Measurements</desc>
			<v:userDefs>
				<v:ud v:nameU="visVersion" v:val="VT0(15):26"/>
				<v:ud v:nameU="ArrowType" v:prompt="" v:val="VT0(2):26"/>
			</v:userDefs>
			<v:textBlock v:margins="rect(4,4,4,4)" v:tabSpace="42.5197"/>
			<v:textRect cx="89.0092" cy="309.474" width="178.02" height="0" transform="rotate(180)"/>
			<path d="M0 309.47 L11.91 289.63 L11.91 299.55 L178.02 299.55 L178.02 309.47 L178.02 319.4 L11.91 319.4 L11.91 329.32
						 L0 309.47 Z" class="st4"/>
			<text x="-144.29" y="-304.07" transform="rotate(180)" class="st10" v:langID="2057"><v:paragraph v:horizAlign="1"/><v:tabList/>Measurements</text>		</g>
		<g id="shape138-71" v:mID="138" v:groupContext="shape" transform="translate(383.975,130.178) rotate(90)">
			<title>Simple Arrow.96</title>
			<desc>Events</desc>
			<v:userDefs>
				<v:ud v:nameU="visVersion" v:val="VT0(15):26"/>
				<v:ud v:nameU="ArrowType" v:prompt="" v:val="VT0(2):26"/>
			</v:userDefs>
			<v:textBlock v:margins="rect(4,4,4,4)" v:tabSpace="42.5197"/>
			<v:textRect cx="89.0092" cy="309.474" width="178.02" height="0" transform="rotate(180)"/>
			<path d="M0 309.47 L11.91 289.63 L11.91 299.55 L178.02 299.55 L178.02 309.47 L178.02 319.4 L11.91 319.4 L11.91 329.32
						 L0 309.47 Z" class="st4"/>
			<text x="-113.21" y="-304.07" transform="rotate(180)" class="st10" v:langID="2057"><v:paragraph v:horizAlign="1"/><v:tabList/>Events</text>		</g>
		<g id="shape139-74" v:mID="139" v:groupContext="shape" transform="translate(262.25,544.656) rotate(180)">
			<title>Simple Arrow.113</title>
			<desc>API</desc>
			<v:userDefs>
				<v:ud v:nameU="visVersion" v:val="VT0(15):26"/>
				<v:ud v:nameU="ArrowType" v:prompt="" v:val="VT0(3):26"/>
			</v:userDefs>
			<v:textBlock v:margins="rect(4,4,4,4)" v:tabSpace="42.5197"/>
			<v:textRect cx="24.5883" cy="309.474" width="49.18" height="0" transform="rotate(180)"/>
			<path d="M0 309.47 L11.34 285 L11.34 297.24 L37.84 297.24 L37.84 285 L49.18 309.47 L37.84 333.95 L37.84 321.71 L11.34
						 321.71 L11.34 333.95 L0 309.47 Z" class="st4"/>
			<text x="-36.71" y="-304.07" transform="rotate(180)" class="st10" v:langID="2057"><v:paragraph v:horizAlign="1"/><v:tabList/>API</text>		</g>
		<g id="shape140-77" v:mID="140" v:groupContext="shape" transform="translate(865.865,170.46) rotate(90)">
			<title>Simple Arrow.114</title>
			<desc>DCM</desc>
			<v:userDefs>
				<v:ud v:nameU="visVersion" v:val="VT0(15):26"/>
				<v:ud v:nameU="ArrowType" v:prompt="" v:val="VT0(3):26"/>
			</v:userDefs>
			<v:textBlock v:margins="rect(4,4,4,4)" v:tabSpace="42.5197"/>
			<v:textRect cx="68.6366" cy="309.474" width="137.28" height="0" transform="rotate(180)"/>
			<path d="M0 309.47 L11.34 285 L11.34 297.24 L125.93 297.24 L125.93 285 L137.27 309.47 L125.93 333.95 L125.93 321.71 L11.34
						 321.71 L11.34 333.95 L0 309.47 Z" class="st4"/>
			<text x="-86.67" y="-304.07" transform="rotate(180)" class="st10" v:langID="2057"><v:paragraph v:horizAlign="1"/><v:tabList/>DCM</text>		</g>
	</g>
</svg>
